<svg width="26" height="21" viewBox="0 0 26 21" fill="none" xmlns="http://www.w3.org/2000/svg">
<path d="M2.13647 20.25C1.63647 20.25 1.19897 20.0625 0.823975 19.6875C0.448975 19.3125 0.261475 18.875 0.261475 18.375V2.125C0.261475 1.625 0.448975 1.1875 0.823975 0.8125C1.19897 0.4375 1.63647 0.25 2.13647 0.25H23.3865C23.8865 0.25 24.324 0.4375 24.699 0.8125C25.074 1.1875 25.2615 1.625 25.2615 2.125V18.375C25.2615 18.875 25.074 19.3125 24.699 19.6875C24.324 20.0625 23.8865 20.25 23.3865 20.25H2.13647ZM12.7615 10.8125L2.13647 3.84375V18.375H23.3865V3.84375L12.7615 10.8125ZM12.7615 8.9375L23.2615 2.125H2.29272L12.7615 8.9375ZM2.13647 3.84375V2.125V3.84375V18.375V3.84375Z" fill="white"/>
</svg>
