<?xml version="1.0" encoding="UTF-8" standalone="no"?>
<!-- Created with Inkscape (http://www.inkscape.org/) -->

<svg
   width="7.5276732mm"
   height="7.592031mm"
   viewBox="0 0 7.5276732 7.592031"
   version="1.1"
   id="svg5"
   xml:space="preserve"
   inkscape:version="1.2.1 (ef4d3fba62, 2022-07-19, custom)"
   sodipodi:docname="contactCall.svg"
   xmlns:inkscape="http://www.inkscape.org/namespaces/inkscape"
   xmlns:sodipodi="http://sodipodi.sourceforge.net/DTD/sodipodi-0.dtd"
   xmlns="http://www.w3.org/2000/svg"
   xmlns:svg="http://www.w3.org/2000/svg"><sodipodi:namedview
     id="namedview7"
     pagecolor="#505050"
     bordercolor="#eeeeee"
     borderopacity="1"
     inkscape:showpageshadow="0"
     inkscape:pageopacity="0"
     inkscape:pagecheckerboard="0"
     inkscape:deskcolor="#505050"
     inkscape:document-units="mm"
     showgrid="false"
     inkscape:zoom="4.0195286"
     inkscape:cx="4.478137"
     inkscape:cy="43.413051"
     inkscape:window-width="1366"
     inkscape:window-height="711"
     inkscape:window-x="1360"
     inkscape:window-y="0"
     inkscape:window-maximized="1"
     inkscape:current-layer="layer1" /><defs
     id="defs2" /><g
     inkscape:label="Camada 1"
     inkscape:groupmode="layer"
     id="layer1"
     transform="translate(-60.214923,-146.31333)"><g
       style="fill:none"
       id="g163"
       transform="matrix(0.3345628,0,0,0.33742361,58.956475,145.04799)"><path
         d="m 24.8552,26.25 c -2.5416,0 -5.0677,-0.625 -7.5781,-1.875 -2.5104,-1.25 -4.7656,-2.875 -6.7656,-4.875 -2.00003,-2 -3.62503,-4.2552 -4.87503,-6.7656 -1.25,-2.5104 -1.875,-5.03648 -1.875,-7.57815 0,-0.39583 0.13542,-0.72917 0.40625,-1 C 4.43856,3.88542 4.77189,3.75 5.16772,3.75 h 4.375 c 0.29167,0 0.54688,0.09896 0.76558,0.29687 0.2188,0.19792 0.3594,0.46355 0.4219,0.79688 l 0.8438,3.9375 c 0.0416,0.29167 0.0364,0.55729 -0.0157,0.79687 -0.052,0.23959 -0.1614,0.44268 -0.3281,0.60938 l -3.12498,3.1563 c 1.16667,1.9374 2.47398,3.625 3.92188,5.0624 1.4479,1.4376 3.0885,2.6563 4.9219,3.6563 L 19.9177,19 c 0.2084,-0.2292 0.4479,-0.3906 0.7188,-0.4844 0.2708,-0.0937 0.5416,-0.1094 0.8125,-0.0468 l 3.7187,0.8124 c 0.3125,0.0626 0.5729,0.2188 0.7813,0.4688 0.2083,0.25 0.3125,0.5417 0.3125,0.875 v 4.2188 c 0,0.3958 -0.1354,0.7291 -0.4063,1 -0.2708,0.2708 -0.6041,0.4062 -1,0.4062 z M 7.16772,11.625 9.69897,9.0625 8.98022,5.625 H 5.63647 c 0,0.8125 0.125,1.70312 0.375,2.67188 0.25,0.96874 0.63542,2.07812 1.15625,3.32812 z M 24.3865,24.375 V 21.0312 L 21.1677,20.375 18.699,22.9688 c 0.8541,0.3958 1.7812,0.7187 2.7812,0.9687 1,0.25 1.9688,0.3958 2.9063,0.4375 z"
         fill="#ffffff"
         id="path154" /></g></g></svg>
