<svg width="41" height="40" viewBox="0 0 41 40" fill="none" xmlns="http://www.w3.org/2000/svg">
<g clip-path="url(#clip0_278_507)">
<path d="M32.4971 0H7.52821C3.37621 0 0.0114746 3.36473 0.0114746 7.51674V32.4833C0.0114746 36.6364 3.37621 40 7.52821 40H32.4947C36.6479 40 40.0115 36.6364 40.0115 32.4833V7.51674C40.0126 3.36473 36.6479 0 32.4971 0ZM33.6264 9.37766C33.035 9.19447 32.3057 9.05881 31.3956 9.05881C29.1196 9.05881 28.1665 10.8328 28.1665 13.0172V14.1535H32.6258V19.2493H28.2117V36.4022H21.2504V19.2504H18.339V14.1546H21.2504V13.2897C21.2504 10.6067 22.0701 7.6466 24.0725 5.82857C25.8 4.19027 28.2117 3.59894 30.2141 3.59894C31.7608 3.59894 32.9434 3.78214 33.9012 4.05461L33.6264 9.37766Z" fill="white"/>
</g>
<defs>
<clipPath id="clip0_278_507">
<rect width="40" height="40" fill="white" transform="translate(0.0114746)"/>
</clipPath>
</defs>
</svg>
