<svg width="41" height="40" viewBox="0 0 41 40" fill="none" xmlns="http://www.w3.org/2000/svg">
<g clip-path="url(#clip0_278_493)" filter="url(#filter0_b_278_493)">
<path d="M20.0115 3.60333C25.3515 3.60333 25.9848 3.62333 28.0931 3.72C30.2731 3.82 32.5181 4.31667 34.1065 5.905C35.7098 7.50833 36.1915 9.73167 36.2915 11.9183C36.3881 14.0267 36.4081 14.66 36.4081 20C36.4081 25.34 36.3881 25.9733 36.2915 28.0817C36.1931 30.25 35.6848 32.5167 34.1065 34.095C32.5031 35.6983 30.2815 36.18 28.0931 36.28C25.9848 36.3767 25.3515 36.3967 20.0115 36.3967C14.6715 36.3967 14.0381 36.3767 11.9298 36.28C9.77814 36.1817 7.48147 35.6617 5.91647 34.095C4.32147 32.5 3.83147 30.255 3.73147 28.0817C3.63481 25.9733 3.61481 25.34 3.61481 20C3.61481 14.66 3.63481 14.0267 3.73147 11.9183C3.82981 9.75833 4.34314 7.47833 5.91647 5.905C7.51647 4.305 9.74814 3.82 11.9298 3.72C14.0381 3.62333 14.6715 3.60333 20.0115 3.60333ZM20.0115 0C14.5798 0 13.8981 0.0233333 11.7648 0.12C8.67314 0.261667 5.60314 1.12167 3.36814 3.35667C1.12481 5.6 0.273141 8.66333 0.131475 11.7533C0.0348079 13.8867 0.0114746 14.5683 0.0114746 20C0.0114746 25.4317 0.0348079 26.1133 0.131475 28.2467C0.273141 31.335 1.13647 34.4133 3.36814 36.6433C5.60981 38.885 8.67814 39.7383 11.7648 39.88C13.8981 39.9767 14.5798 40 20.0115 40C25.4431 40 26.1248 39.9767 28.2581 39.88C31.3481 39.7383 34.4215 38.8767 36.6548 36.6433C38.8998 34.3983 39.7498 31.3367 39.8915 28.2467C39.9881 26.1133 40.0115 25.4317 40.0115 20C40.0115 14.5683 39.9881 13.8867 39.8915 11.7533C39.7498 8.66167 38.8881 5.59 36.6548 3.35667C34.4165 1.11833 31.3398 0.26 28.2581 0.12C26.1248 0.0233333 25.4431 0 20.0115 0Z" fill="white"/>
<path d="M20.0119 9.72998C14.3403 9.72998 9.74194 14.3283 9.74194 20C9.74194 25.6716 14.3403 30.27 20.0119 30.27C25.6836 30.27 30.2819 25.6716 30.2819 20C30.2819 14.3283 25.6836 9.72998 20.0119 9.72998ZM20.0119 26.6666C16.3303 26.6666 13.3453 23.6816 13.3453 20C13.3453 16.3183 16.3303 13.3333 20.0119 13.3333C23.6936 13.3333 26.6786 16.3183 26.6786 20C26.6786 23.6816 23.6936 26.6666 20.0119 26.6666Z" fill="white"/>
<path d="M30.6875 11.7233C32.013 11.7233 33.0875 10.6488 33.0875 9.32334C33.0875 7.99786 32.013 6.92334 30.6875 6.92334C29.3621 6.92334 28.2875 7.99786 28.2875 9.32334C28.2875 10.6488 29.3621 11.7233 30.6875 11.7233Z" fill="white"/>
</g>
<defs>
<filter id="filter0_b_278_493" x="-3.98853" y="-4" width="48" height="48" filterUnits="userSpaceOnUse" color-interpolation-filters="sRGB">
<feFlood flood-opacity="0" result="BackgroundImageFix"/>
<feGaussianBlur in="BackgroundImage" stdDeviation="2"/>
<feComposite in2="SourceAlpha" operator="in" result="effect1_backgroundBlur_278_493"/>
<feBlend mode="normal" in="SourceGraphic" in2="effect1_backgroundBlur_278_493" result="shape"/>
</filter>
<clipPath id="clip0_278_493">
<rect width="40" height="40" fill="white" transform="translate(0.0114746)"/>
</clipPath>
</defs>
</svg>
