<svg width="18" height="26" viewBox="0 0 18 26" fill="none" xmlns="http://www.w3.org/2000/svg">
<path d="M9.01147 18.6875C11.1781 16.9375 12.8136 15.2552 13.9177 13.6406C15.0219 12.026 15.574 10.5208 15.574 9.125C15.574 7.89583 15.35 6.85417 14.9021 6C14.4542 5.14583 13.9021 4.44792 13.2458 3.90625C12.5896 3.36458 11.8761 2.97396 11.1052 2.73438C10.3344 2.49479 9.63647 2.375 9.01147 2.375C8.38647 2.375 7.68856 2.49479 6.91772 2.73438C6.14689 2.97396 5.43335 3.36458 4.7771 3.90625C4.12085 4.44792 3.56877 5.14583 3.12085 6C2.67293 6.85417 2.44897 7.89583 2.44897 9.125C2.44897 10.5208 3.00106 12.026 4.10522 13.6406C5.20939 15.2552 6.84481 16.9375 9.01147 18.6875ZM9.01147 21.0625C6.15731 18.9167 4.03752 16.8646 2.6521 14.9062C1.26668 12.9479 0.573975 11.0208 0.573975 9.125C0.573975 7.70833 0.829183 6.46354 1.3396 5.39062C1.85002 4.31771 2.51147 3.41667 3.32397 2.6875C4.13647 1.95833 5.04272 1.41146 6.04272 1.04688C7.04272 0.682292 8.03231 0.5 9.01147 0.5C9.99064 0.5 10.9802 0.682292 11.9802 1.04688C12.9802 1.41146 13.8865 1.95833 14.699 2.6875C15.5115 3.41667 16.1729 4.31771 16.6833 5.39062C17.1938 6.46354 17.449 7.70833 17.449 9.125C17.449 11.0208 16.7563 12.9479 15.3708 14.9062C13.9854 16.8646 11.8656 18.9167 9.01147 21.0625ZM9.01147 11.125C9.61564 11.125 10.1313 10.9115 10.5583 10.4844C10.9854 10.0573 11.199 9.54167 11.199 8.9375C11.199 8.33333 10.9854 7.81771 10.5583 7.39062C10.1313 6.96354 9.61564 6.75 9.01147 6.75C8.40731 6.75 7.89168 6.96354 7.4646 7.39062C7.03752 7.81771 6.82397 8.33333 6.82397 8.9375C6.82397 9.54167 7.03752 10.0573 7.4646 10.4844C7.89168 10.9115 8.40731 11.125 9.01147 11.125ZM0.573975 25.5V23.625H17.449V25.5H0.573975Z" fill="white"/>
</svg>
