<svg width="43" height="46" viewBox="0 0 43 46" fill="none" xmlns="http://www.w3.org/2000/svg">
<path d="M7.60714 35.7143C9.85714 34.0381 12.0893 32.7524 14.3036 31.8571C16.5179 30.9619 18.8929 30.5143 21.4286 30.5143C23.9643 30.5143 26.3482 30.9619 28.5804 31.8571C30.8125 32.7524 33.0536 34.0381 35.3036 35.7143C36.875 33.6571 37.9911 31.581 38.6518 29.4857C39.3125 27.3905 39.6429 25.181 39.6429 22.8571C39.6429 17.3333 37.9018 12.7143 34.4196 9C30.9375 5.28571 26.6071 3.42857 21.4286 3.42857C16.25 3.42857 11.9196 5.28571 8.4375 9C4.95536 12.7143 3.21429 17.3333 3.21429 22.8571C3.21429 25.181 3.55357 27.3905 4.23214 29.4857C4.91071 31.581 6.03571 33.6571 7.60714 35.7143ZM21.4286 24.5714C19.3571 24.5714 17.6161 23.819 16.2054 22.3143C14.7946 20.8095 14.0893 18.9524 14.0893 16.7429C14.0893 14.5333 14.7946 12.6762 16.2054 11.1714C17.6161 9.66667 19.3571 8.91429 21.4286 8.91429C23.5 8.91429 25.2411 9.66667 26.6518 11.1714C28.0625 12.6762 28.7679 14.5333 28.7679 16.7429C28.7679 18.9524 28.0625 20.8095 26.6518 22.3143C25.2411 23.819 23.5 24.5714 21.4286 24.5714ZM21.4286 45.7143C18.5 45.7143 15.7321 45.1143 13.125 43.9143C10.5179 42.7143 8.24107 41.0762 6.29464 39C4.34821 36.9238 2.8125 34.4952 1.6875 31.7143C0.5625 28.9333 0 25.981 0 22.8571C0 19.6952 0.5625 16.7333 1.6875 13.9714C2.8125 11.2095 4.34821 8.79048 6.29464 6.71429C8.24107 4.63809 10.5179 3 13.125 1.8C15.7321 0.6 18.5 0 21.4286 0C24.3929 0 27.1696 0.6 29.7589 1.8C32.3482 3 34.6161 4.63809 36.5625 6.71429C38.5089 8.79048 40.0446 11.2095 41.1696 13.9714C42.2946 16.7333 42.8571 19.6952 42.8571 22.8571C42.8571 25.981 42.2946 28.9333 41.1696 31.7143C40.0446 34.4952 38.5089 36.9238 36.5625 39C34.6161 41.0762 32.3482 42.7143 29.7589 43.9143C27.1696 45.1143 24.3929 45.7143 21.4286 45.7143ZM21.4286 42.2857C23.3929 42.2857 25.3125 41.981 27.1875 41.3714C29.0625 40.7619 30.9107 39.6952 32.7321 38.1714C30.9107 36.8 29.0536 35.7524 27.1607 35.0286C25.2679 34.3048 23.3571 33.9429 21.4286 33.9429C19.5 33.9429 17.5893 34.3048 15.6964 35.0286C13.8036 35.7524 11.9464 36.8 10.125 38.1714C11.9464 39.6952 13.7946 40.7619 15.6696 41.3714C17.5446 41.981 19.4643 42.2857 21.4286 42.2857ZM21.4286 21.1429C22.6429 21.1429 23.6339 20.7333 24.4018 19.9143C25.1696 19.0952 25.5536 18.0381 25.5536 16.7429C25.5536 15.4476 25.1696 14.3905 24.4018 13.5714C23.6339 12.7524 22.6429 12.3429 21.4286 12.3429C20.2143 12.3429 19.2232 12.7524 18.4554 13.5714C17.6875 14.3905 17.3036 15.4476 17.3036 16.7429C17.3036 18.0381 17.6875 19.0952 18.4554 19.9143C19.2232 20.7333 20.2143 21.1429 21.4286 21.1429Z" fill="white"/>
</svg>
