<?xml version="1.0" encoding="UTF-8" standalone="no"?>
<svg
   width="217"
   height="68"
   viewBox="0 0 217 68"
   fill="none"
   version="1.1"
   id="svg160"
   sodipodi:docname="minimal-logo.svg"
   inkscape:version="1.2 (56b05e47e7, 2022-06-09, custom)"
   xmlns:inkscape="http://www.inkscape.org/namespaces/inkscape"
   xmlns:sodipodi="http://sodipodi.sourceforge.net/DTD/sodipodi-0.dtd"
   xmlns="http://www.w3.org/2000/svg"
   xmlns:svg="http://www.w3.org/2000/svg">
  <defs
     id="defs164" />
  <sodipodi:namedview
     id="namedview162"
     pagecolor="#505050"
     bordercolor="#eeeeee"
     borderopacity="1"
     inkscape:showpageshadow="0"
     inkscape:pageopacity="0"
     inkscape:pagecheckerboard="0"
     inkscape:deskcolor="#505050"
     showgrid="false"
     inkscape:zoom="2.5090886"
     inkscape:cx="66.558033"
     inkscape:cy="43.242794"
     inkscape:window-width="1366"
     inkscape:window-height="737"
     inkscape:window-x="1280"
     inkscape:window-y="32"
     inkscape:window-maximized="1"
     inkscape:current-layer="svg160" />
  <g
     id="g1614"
     transform="matrix(0.93792438,0,0,0.82116524,7.6466089,6.291536)">
    <path
       d="m 12.555307,-1.906501 188.947803,0.057248 c 19.57573,5.0441707 24.24724,58.608992 0.26162,70.366047 L 13.268388,67.481345 C -1.4162169,63.924627 -9.4084517,14.758377 12.555307,-1.906501 Z"
       fill="white"
       stroke="#ffffff"
       stroke-width="4.83748"
       id="path154"
       style="fill:#ff00ff;fill-opacity:0;stroke:#7700cc;stroke-opacity:0.733333" />
    <path
       d="M 19.1041,7.0061 193.988,7.05057 c 18.119,3.91793 22.442,45.52273 0.241,54.65463 L 19.7642,60.9009 C 6.17258,58.1383 -1.22475,19.95 19.1041,7.0061 Z"
       fill="white"
       stroke="#70CBCB"
       stroke-width="4.10161"
       id="path156"
       style="fill:#ff00ff;fill-opacity:0;stroke:#7700cc;stroke-opacity:0.733333" />
    <path
       d="m 33.9237,22.9215 2.6793,-0.0023 0.0207,14.6494 c 0.0021,1.5124 -0.3525,2.8632 -1.0639,4.0522 -0.7041,1.1818 -1.7003,2.1153 -2.9885,2.8007 -1.2883,0.6781 -2.8003,1.018 -4.536,1.0195 -1.7358,0.0015 -3.2487,-0.3357 -4.5389,-1.0115 -1.2902,-0.6831 -2.2926,-1.6149 -3.0073,-2.7955 -0.7075,-1.1877 -1.0623,-2.5378 -1.0644,-4.0503 l -0.0207,-14.6494 2.6792,-0.0024 0.0204,14.4334 c 0.0015,1.0803 0.2406,2.0416 0.7171,2.8838 0.4765,0.8351 1.1545,1.4935 2.0338,1.9753 0.8866,0.4745 1.9456,0.7113 3.1772,0.7102 1.2316,-0.0011 2.29,-0.2397 3.1752,-0.7158 0.8852,-0.4833 1.5613,-1.1429 2.0283,-1.9788 0.4741,-0.8431 0.7104,-1.8048 0.7089,-2.8852 z m 17.2049,9.8592 0.0033,2.3767 -9.6798,0.0086 -0.0034,-2.3768 z m 16.9255,-4.3579 c -0.1312,-1.0946 -0.6582,-1.944 -1.5809,-2.5482 -0.9228,-0.6041 -2.054,-0.9056 -3.3936,-0.9045 -0.9795,9e-4 -1.8363,0.1601 -2.5705,0.4776 -0.727,0.3176 -1.2954,0.7538 -1.7051,1.3088 -0.4026,0.5549 -0.6033,1.1853 -0.6023,1.8911 8e-4,0.5906 0.142,1.0982 0.4235,1.5229 0.2886,0.4175 0.6564,0.7665 1.1034,1.0469 0.4469,0.2733 0.9154,0.4998 1.4054,0.6794 0.49,0.1724 0.9403,0.3125 1.351,0.4202 l 2.248,0.603 c 0.5764,0.1507 1.2176,0.359 1.9238,0.6249 0.7134,0.2658 1.3946,0.629 2.0434,1.0893 0.6561,0.4532 1.1971,1.0361 1.623,1.7488 0.4259,0.7126 0.6396,1.5875 0.6411,2.6246 0.0017,1.1956 -0.3101,2.2762 -0.9353,3.2419 -0.618,0.9656 -1.5244,1.7334 -2.7192,2.3035 -1.1876,0.57 -2.6312,0.8558 -4.331,0.8573 -1.5845,0.0013 -2.9569,-0.2531 -4.1171,-0.7635 -1.1531,-0.5103 -2.0616,-1.2225 -2.7255,-2.1366 -0.6567,-0.9142 -1.0291,-1.9762 -1.1173,-3.1861 l 2.7657,-0.0024 c 0.0732,0.8354 0.3551,1.5266 0.8456,2.0735 0.4977,0.5397 1.1249,0.9425 1.8815,1.2083 0.7638,0.2586 1.585,0.3876 2.4637,0.3868 1.0227,-9e-4 1.9408,-0.1674 2.7542,-0.4994 0.8134,-0.3392 1.4573,-0.8079 1.9318,-1.4061 0.4745,-0.6054 0.7112,-1.3115 0.71,-2.1181 -10e-4,-0.7346 -0.2071,-1.3323 -0.6183,-1.7928 -0.4112,-0.4606 -0.9519,-0.8347 -1.6221,-1.1222 -0.6702,-0.2875 -1.3944,-0.5389 -2.1725,-0.7543 L 61.2349,34.522 c -1.7292,-0.4955 -3.0987,-1.2037 -4.1083,-2.1247 -1.0096,-0.921 -1.5155,-2.1269 -1.5176,-3.6178 -0.0017,-1.2388 0.3317,-2.3194 1.0002,-3.2419 0.6757,-0.9297 1.5821,-1.6507 2.7194,-2.1631 1.1444,-0.5195 2.4224,-0.7799 3.8341,-0.7812 1.426,-0.0012 2.694,0.2533 3.8039,0.7637 1.1098,0.5032 1.9895,1.1938 2.6389,2.0719 0.6567,0.8781 1.0038,1.8754 1.0414,2.9917 z m 25.1063,1.3608 -2.6792,0.0024 c -0.1596,-0.7705 -0.4378,-1.4473 -0.8348,-2.0303 -0.3897,-0.5831 -0.8658,-1.0724 -1.4281,-1.468 -0.5551,-0.4029 -1.1714,-0.7048 -1.8487,-0.9059 -0.6773,-0.2011 -1.3832,-0.3013 -2.1178,-0.3006 -1.3397,0.0011 -2.5528,0.3407 -3.6394,1.0187 -1.0793,0.6779 -1.9386,1.6762 -2.5777,2.9948 -0.632,1.3186 -0.9466,2.9357 -0.9439,4.8515 0.0027,1.9158 0.3219,3.5325 0.9575,4.8499 0.6429,1.3175 1.505,2.3142 2.5863,2.9903 1.0885,0.676 2.3025,1.0135 3.6422,1.0123 0.7346,-6e-4 1.4403,-0.1021 2.117,-0.3043 0.6767,-0.2023 1.2921,-0.5017 1.8461,-0.8984 0.5612,-0.4038 1.0359,-0.8975 1.424,-1.4813 0.3953,-0.5909 0.6716,-1.2682 0.829,-2.0317 l 2.6792,-0.0024 c -0.2001,1.1309 -0.5659,2.1432 -1.0977,3.0367 -0.5317,0.8936 -1.1932,1.654 -1.9846,2.2813 -0.7913,0.6201 -1.6801,1.0926 -2.6664,1.4176 -0.9791,0.3249 -2.0268,0.4879 -3.1431,0.4889 -1.887,0.0017 -3.5658,-0.4578 -5.0363,-1.3784 -1.4706,-0.9206 -2.6284,-2.2304 -3.4735,-3.9294 -0.845,-1.699 -1.2692,-3.7152 -1.2725,-6.0488 -0.0033,-2.3335 0.4152,-4.3505 1.2554,-6.051 0.8403,-1.7005 1.9944,-3.0123 3.4624,-3.9355 1.4679,-0.9231 3.1454,-1.3856 5.0324,-1.3872 1.1164,-0.001 2.1645,0.1601 3.1445,0.4834 0.9872,0.3232 1.8773,0.7978 2.6704,1.4237 0.7932,0.6187 1.4568,1.3743 1.9911,2.2669 0.5342,0.8854 0.9029,1.897 1.1062,3.0348 z m 23.0036,4.1283 c 0.003,2.3335 -0.415,4.3505 -1.255,6.051 -0.841,1.7005 -1.995,3.0123 -3.463,3.9355 -1.468,0.9231 -3.145,1.3856 -5.032,1.3872 -1.887,0.0017 -3.566,-0.4578 -5.037,-1.3784 -1.4701,-0.9206 -2.628,-2.2304 -3.473,-3.9294 -0.8451,-1.699 -1.2693,-3.7152 -1.2726,-6.0487 -0.0033,-2.3336 0.4152,-4.3506 1.2555,-6.051 0.8403,-1.7005 1.9944,-3.0124 3.4621,-3.9355 1.468,-0.9232 3.146,-1.3856 5.033,-1.3873 1.887,-0.0017 3.565,0.4578 5.036,1.3784 1.471,0.9206 2.628,2.2304 3.473,3.9294 0.845,1.699 1.27,3.7152 1.273,6.0488 z m -2.593,0.0023 c -0.003,-1.9158 -0.325,-3.5325 -0.968,-4.8499 -0.636,-1.3175 -1.498,-2.3142 -2.586,-2.9903 -1.082,-0.676 -2.292,-1.0135 -3.632,-1.0123 -1.339,0.0012 -2.553,0.3407 -3.639,1.0187 -1.079,0.678 -1.939,1.6762 -2.578,2.9948 -0.6318,1.3186 -0.9465,2.9358 -0.9437,4.8516 0.0027,1.9158 0.3218,3.5324 0.9577,4.8499 0.643,1.3174 1.505,2.3142 2.586,2.9902 1.089,0.6761 2.303,1.0135 3.642,1.0123 1.34,-0.0011 2.549,-0.3407 3.629,-1.0187 1.086,-0.6779 1.946,-1.6762 2.578,-2.9948 0.639,-1.3186 0.957,-2.9357 0.954,-4.8515 z m 25.766,-0.0227 c 0.004,2.3335 -0.415,4.3505 -1.255,6.051 -0.84,1.7005 -1.995,3.0123 -3.463,3.9355 -1.468,0.9232 -3.145,1.3856 -5.032,1.3872 -1.887,0.0017 -3.566,-0.4578 -5.036,-1.3784 -1.471,-0.9206 -2.629,-2.2303 -3.474,-3.9293 -0.845,-1.699 -1.269,-3.7153 -1.272,-6.0488 -0.004,-2.3336 0.415,-4.3506 1.255,-6.051 0.84,-1.7005 1.995,-3.0123 3.463,-3.9355 1.467,-0.9232 3.145,-1.3856 5.032,-1.3873 1.887,-0.0016 3.566,0.4578 5.036,1.3784 1.471,0.9206 2.629,2.2304 3.474,3.9294 0.845,1.699 1.269,3.7153 1.272,6.0488 z m -2.593,0.0023 c -0.002,-1.9158 -0.325,-3.5324 -0.968,-4.8499 -0.636,-1.3174 -1.498,-2.3142 -2.586,-2.9903 -1.081,-0.676 -2.292,-1.0135 -3.632,-1.0123 -1.339,0.0012 -2.552,0.3408 -3.639,1.0187 -1.079,0.678 -1.938,1.6763 -2.578,2.9948 -0.632,1.3186 -0.946,2.9358 -0.943,4.8516 0.002,1.9158 0.321,3.5324 0.957,4.8499 0.643,1.3174 1.505,2.3142 2.586,2.9902 1.089,0.6761 2.303,1.0135 3.642,1.0124 1.34,-0.0012 2.55,-0.3408 3.629,-1.0187 1.087,-0.678 1.946,-1.6763 2.578,-2.9949 0.639,-1.3185 0.957,-2.9357 0.954,-4.8515 z m 4.955,-8.6903 -0.003,-2.3768 16.594,-0.0145 0.003,2.3767 -6.957,0.0061 0.028,19.7486 -2.68,0.0024 -0.028,-19.7486 z m 20.757,19.7303 -0.031,-22.1253 13.353,-0.0117 0.003,2.3767 -10.674,0.0094 0.011,7.4759 9.982,-0.0087 0.004,2.3767 -9.983,0.0088 0.011,7.5191 10.846,-0.0095 0.004,2.3768 z m 18.182,-0.0159 -0.031,-22.1254 7.476,-0.0065 c 1.728,-0.0016 3.148,0.2925 4.258,0.8821 1.109,0.5824 1.932,1.3847 2.466,2.407 0.535,1.0222 0.803,2.1852 0.804,3.4888 0.002,1.3036 -0.263,2.4598 -0.794,3.4686 -0.532,1.0087 -1.348,1.8017 -2.449,2.3789 -1.101,0.5699 -2.509,0.8556 -4.223,0.8571 l -6.05,0.0054 -0.003,-2.42 5.963,-0.0052 c 1.181,-0.0011 2.132,-0.1748 2.852,-0.5211 0.726,-0.3464 1.252,-0.8366 1.575,-1.4707 0.33,-0.6413 0.495,-1.4048 0.493,-2.2907 -0.001,-0.8859 -0.168,-1.66 -0.5,-2.3223 -0.332,-0.6623 -0.862,-1.1732 -1.59,-1.5327 -0.728,-0.3667 -1.69,-0.5495 -2.885,-0.5484 l -4.711,0.0041 0.028,19.7486 z m 10.4,-9.9483 5.459,9.9343 -3.111,0.0027 -5.372,-9.9344 z"
       fill="#70CBCB"
       id="path158"
       style="fill:#7700cc;fill-opacity:0.733333" />
  </g>
</svg>
