<svg width="40" height="40" viewBox="0 0 40 40" fill="none" xmlns="http://www.w3.org/2000/svg">
<g clip-path="url(#clip0_278_537)">
<path d="M29.5979 22.9844C29.52 22.947 26.6039 21.511 26.0857 21.3245C25.8741 21.2485 25.6475 21.1744 25.4065 21.1744C25.0127 21.1744 24.6819 21.3706 24.4243 21.7561C24.133 22.1891 23.2512 23.2198 22.9787 23.5278C22.9431 23.5684 22.8945 23.617 22.8654 23.617C22.8393 23.617 22.388 23.4311 22.2514 23.3718C19.1232 22.013 16.7488 18.7453 16.4232 18.1943C16.3767 18.115 16.3748 18.0791 16.3744 18.0791C16.3858 18.0371 16.491 17.9317 16.5453 17.8773C16.7041 17.7201 16.8762 17.513 17.0427 17.3126C17.1215 17.2176 17.2005 17.1226 17.278 17.033C17.5196 16.7519 17.6271 16.5337 17.7518 16.281L17.8171 16.1497C18.1215 15.5449 17.8615 15.0345 17.7775 14.8697C17.7086 14.7318 16.4773 11.7601 16.3464 11.4479C16.0315 10.6945 15.6156 10.3438 15.0375 10.3438C14.9839 10.3438 15.0375 10.3437 14.8126 10.3532C14.5387 10.3648 13.0471 10.5612 12.3877 10.9769C11.6883 11.4178 10.5052 12.8232 10.5052 15.2949C10.5052 17.5195 11.9169 19.6199 12.523 20.4187C12.538 20.4388 12.5657 20.4797 12.6058 20.5384C14.927 23.9283 17.8206 26.4405 20.754 27.6123C23.578 28.7404 24.9153 28.8708 25.6756 28.8708C25.6757 28.8708 25.6757 28.8708 25.6757 28.8708C25.9952 28.8708 26.2509 28.8457 26.4765 28.8235L26.6196 28.8098C27.5952 28.7234 29.7391 27.6124 30.2267 26.2572C30.6109 25.1898 30.7122 24.0236 30.4566 23.6004C30.2815 23.3126 29.9799 23.1678 29.5979 22.9844Z" fill="white"/>
<path d="M20.355 0C9.52179 0 0.708282 8.74727 0.708282 19.4991C0.708282 22.9766 1.63893 26.3806 3.40192 29.3599L0.0275023 39.3138C-0.0353548 39.4994 0.0113984 39.7045 0.148671 39.8443C0.247762 39.9455 0.382178 40 0.519451 40C0.572048 40 0.625035 39.9921 0.676723 39.9756L11.0559 36.6774C13.8962 38.1949 17.1063 38.996 20.3552 38.996C31.1874 38.9961 40 30.2497 40 19.4991C40 8.74727 31.1874 0 20.355 0ZM20.355 34.9343C17.298 34.9343 14.3371 34.0516 11.7919 32.3814C11.7063 32.3252 11.607 32.2964 11.507 32.2964C11.4541 32.2964 11.4011 32.3044 11.3496 32.3208L6.15023 33.9735L7.82867 29.0217C7.88296 28.8614 7.85582 28.6847 7.75582 28.5481C5.81763 25.8997 4.79309 22.7708 4.79309 19.4991C4.79309 10.987 11.7741 4.06182 20.3549 4.06182C28.9347 4.06182 35.9149 10.987 35.9149 19.4991C35.915 28.0101 28.9349 34.9343 20.355 34.9343Z" fill="white"/>
</g>
<defs>
<clipPath id="clip0_278_537">
<rect width="40" height="40" fill="white"/>
</clipPath>
</defs>
</svg>
